<?xml version="1.0" encoding="UTF-8"?> <!-- Generator: Adobe Illustrator 24.0.1, SVG Export Plug-In . SVG Version: 6.00 Build 0) --> <svg xmlns="http://www.w3.org/2000/svg" xmlns:xlink="http://www.w3.org/1999/xlink" version="1.1" id="Layer_1" x="0px" y="0px" viewBox="0 0 893 336" style="enable-background:new 0 0 893 336;" xml:space="preserve"> <style type="text/css"> .st0{fill:#52A0DD;} .st1{fill:#3C5C99;} .st2{fill-rule:evenodd;clip-rule:evenodd;fill:#3C5C99;} .st3{fill-rule:evenodd;clip-rule:evenodd;fill:#52A0DD;} </style> <g> <path class="st0" d="M419.61,258.58c0-2.53-0.53-4.76-1.6-6.69c-1.07-1.93-2.55-3.43-4.45-4.49c-1.9-1.07-4.05-1.6-6.46-1.6 c-2.44,0-4.63,0.54-6.58,1.62c-1.95,1.08-3.47,2.59-4.56,4.52c-1.1,1.93-1.64,4.1-1.64,6.51c0,2.44,0.56,4.62,1.69,6.55 c1.13,1.93,2.73,3.44,4.79,4.52c2.07,1.08,4.46,1.62,7.18,1.62c2.13,0,4.05-0.34,5.74-1.02c1.7-0.68,3.1-1.68,4.22-3.01l-3.1-3.57 c-1.76,1.79-4,2.69-6.72,2.69c-2.13,0-3.91-0.53-5.35-1.6c-1.44-1.07-2.32-2.51-2.66-4.33h19.41 C419.58,259.55,419.61,258.98,419.61,258.58L419.61,258.58z M407.1,250.42c1.88,0,3.46,0.56,4.72,1.67 c1.27,1.11,2.02,2.56,2.27,4.35h-14.04c0.28-1.82,1.06-3.28,2.34-4.38C403.68,250.97,405.25,250.42,407.1,250.42L407.1,250.42z"></path> <polygon class="st0" points="422.95,270.81 445.92,270.81 445.92,265.71 428.97,265.71 428.97,238.38 422.95,238.38 "></polygon> <path class="st0" d="M472.46,258.58c0-2.53-0.53-4.76-1.6-6.69c-1.07-1.93-2.55-3.43-4.45-4.49s-4.05-1.6-6.46-1.6 c-2.44,0-4.63,0.54-6.58,1.62c-1.95,1.08-3.47,2.59-4.56,4.52c-1.1,1.93-1.64,4.1-1.64,6.51c0,2.44,0.56,4.62,1.69,6.55 c1.13,1.93,2.73,3.44,4.79,4.52c2.07,1.08,4.46,1.62,7.18,1.62c2.13,0,4.05-0.34,5.74-1.02c1.7-0.68,3.1-1.68,4.22-3.01l-3.1-3.57 c-1.76,1.79-4,2.69-6.72,2.69c-2.13,0-3.91-0.53-5.35-1.6c-1.44-1.07-2.32-2.51-2.66-4.33h19.41 C472.43,259.55,472.46,258.98,472.46,258.58L472.46,258.58z M459.96,250.42c1.88,0,3.46,0.56,4.72,1.67 c1.27,1.11,2.02,2.56,2.27,4.35h-14.04c0.28-1.82,1.06-3.28,2.34-4.38C456.54,250.97,458.1,250.42,459.96,250.42L459.96,250.42z"></path> <path class="st0" d="M485.62,245.79c-2.04,0-3.97,0.26-5.79,0.79c-1.82,0.53-3.38,1.28-4.68,2.27l2.27,4.22 c0.93-0.77,2.06-1.37,3.4-1.81c1.34-0.43,2.71-0.65,4.1-0.65c2.04,0,3.57,0.46,4.61,1.39c1.03,0.93,1.55,2.25,1.55,3.98v0.37h-6.39 c-3.55,0-6.15,0.67-7.81,2.01c-1.65,1.34-2.48,3.13-2.48,5.35c0,1.42,0.38,2.69,1.13,3.82c0.76,1.13,1.83,2.01,3.22,2.64 c1.39,0.63,3.01,0.95,4.86,0.95c1.85,0,3.43-0.29,4.75-0.86c1.31-0.57,2.32-1.4,3.03-2.48v3.01h5.47v-14.5 c0-3.52-0.97-6.15-2.9-7.9C492.05,246.67,489.26,245.79,485.62,245.79L485.62,245.79z M484.83,266.92c-1.48,0-2.64-0.31-3.47-0.93 c-0.83-0.62-1.25-1.45-1.25-2.5c0-2.19,1.67-3.29,5-3.29h5.98v2.87c-0.46,1.24-1.26,2.19-2.39,2.85 C487.57,266.58,486.28,266.92,484.83,266.92L484.83,266.92z"></path> <path class="st0" d="M507.95,249.68v-3.61h-5.51v24.74h5.79v-12c0-2.47,0.63-4.36,1.9-5.67c1.27-1.31,3.03-1.97,5.28-1.97 c0.4,0,0.85,0.05,1.34,0.14v-5.51C512.55,245.79,509.61,247.09,507.95,249.68L507.95,249.68z"></path> <path class="st0" d="M535,245.79c-1.82,0-3.46,0.29-4.91,0.88c-1.45,0.59-2.66,1.45-3.61,2.59v-3.2h-5.51v24.74h5.79V258.3 c0-2.41,0.62-4.25,1.85-5.54c1.23-1.28,2.92-1.92,5.05-1.92c1.88,0,3.34,0.55,4.35,1.64c1.02,1.1,1.53,2.73,1.53,4.89v13.43h5.79 v-14.17c0-3.58-0.94-6.28-2.83-8.11C540.62,246.7,538.12,245.79,535,245.79L535,245.79z"></path> <rect x="550.84" y="246.07" class="st0" width="5.79" height="24.74"></rect> <path class="st0" d="M553.76,241.99c1.08,0,1.97-0.35,2.66-1.04c0.69-0.69,1.04-1.55,1.04-2.57c0-0.96-0.36-1.75-1.07-2.39 c-0.71-0.63-1.59-0.95-2.64-0.95c-1.05,0-1.93,0.33-2.64,1c-0.71,0.66-1.07,1.49-1.07,2.48c0,0.99,0.35,1.81,1.07,2.48 C551.83,241.66,552.71,241.99,553.76,241.99L553.76,241.99z"></path> <path class="st0" d="M576.41,245.79c-1.82,0-3.46,0.29-4.91,0.88c-1.45,0.59-2.66,1.45-3.61,2.59v-3.2h-5.51v24.74h5.79V258.3 c0-2.41,0.62-4.25,1.85-5.54c1.23-1.28,2.92-1.92,5.05-1.92c1.88,0,3.34,0.55,4.35,1.64c1.02,1.1,1.53,2.73,1.53,4.89v13.43h5.79 v-14.17c0-3.58-0.94-6.28-2.83-8.11C582.03,246.7,579.53,245.79,576.41,245.79L576.41,245.79z"></path> <path class="st0" d="M611.29,246.07v3.29c-0.99-1.2-2.22-2.1-3.68-2.69c-1.47-0.59-3.1-0.88-4.89-0.88c-2.35,0-4.47,0.49-6.37,1.48 c-1.9,0.99-3.4,2.39-4.49,4.19c-1.1,1.81-1.64,3.88-1.64,6.23c0,2.35,0.55,4.43,1.64,6.25c1.1,1.82,2.59,3.24,4.49,4.24 c1.9,1,4.02,1.51,6.37,1.51c1.7,0,3.26-0.28,4.68-0.83c1.42-0.56,2.62-1.37,3.61-2.45v1.3c0,2.53-0.63,4.42-1.9,5.65 c-1.27,1.23-3.26,1.85-5.98,1.85c-1.7,0-3.37-0.27-5.03-0.81c-1.65-0.54-3.02-1.26-4.1-2.15l-2.59,4.35 c1.39,1.14,3.15,2.01,5.28,2.62c2.13,0.6,4.38,0.9,6.76,0.9c8.89,0,13.34-4.35,13.34-13.06v-20.98H611.29z M603.6,264.78 c-2.22,0-4.04-0.66-5.44-1.97c-1.41-1.31-2.11-3.02-2.11-5.12c0-2.07,0.7-3.75,2.11-5.05c1.4-1.3,3.22-1.95,5.44-1.95 c2.19,0,3.99,0.65,5.4,1.95c1.4,1.3,2.11,2.98,2.11,5.05c0,2.1-0.7,3.81-2.11,5.12C607.59,264.13,605.79,264.78,603.6,264.78 L603.6,264.78z"></path> <path class="st0" d="M647.79,271.27c2.84,0,5.25-0.43,7.23-1.3c1.98-0.86,3.45-2.02,4.42-3.47c0.97-1.45,1.46-3.07,1.46-4.86 c0-2.1-0.55-3.77-1.64-5c-1.1-1.23-2.42-2.15-3.96-2.76c-1.54-0.6-3.52-1.18-5.93-1.74c-1.76-0.43-3.15-0.82-4.17-1.16 c-1.02-0.34-1.86-0.8-2.52-1.39c-0.66-0.59-1-1.34-1-2.27c0-1.33,0.58-2.39,1.74-3.2c1.16-0.8,2.93-1.2,5.3-1.2 c1.45,0,2.95,0.22,4.49,0.65c1.54,0.43,3.03,1.07,4.45,1.9l1.9-4.68c-1.39-0.93-3.04-1.64-4.96-2.13 c-1.91-0.49-3.86-0.74-5.84-0.74c-2.84,0-5.24,0.43-7.2,1.3c-1.96,0.87-3.43,2.03-4.4,3.5c-0.97,1.47-1.46,3.1-1.46,4.89 c0,2.13,0.55,3.82,1.64,5.07c1.1,1.25,2.41,2.17,3.94,2.76c1.53,0.59,3.53,1.17,6,1.76c1.76,0.43,3.15,0.82,4.17,1.16 c1.02,0.34,1.86,0.81,2.52,1.41c0.66,0.6,1,1.37,1,2.29c0,1.27-0.59,2.29-1.78,3.06c-1.19,0.77-2.99,1.16-5.4,1.16 c-1.95,0-3.88-0.33-5.81-1c-1.93-0.66-3.56-1.52-4.89-2.57l-2.08,4.68c1.36,1.17,3.2,2.12,5.54,2.83 C642.87,270.91,645.29,271.27,647.79,271.27L647.79,271.27z"></path> <path class="st0" d="M676.51,271.13c2.53,0,4.8-0.54,6.81-1.62c2.01-1.08,3.57-2.59,4.7-4.52c1.13-1.93,1.69-4.11,1.69-6.55 c0-2.44-0.56-4.62-1.69-6.53c-1.13-1.91-2.69-3.41-4.7-4.49c-2.01-1.08-4.28-1.62-6.81-1.62c-2.5,0-4.76,0.54-6.76,1.62 c-2.01,1.08-3.57,2.58-4.7,4.49c-1.13,1.92-1.69,4.09-1.69,6.53c0,2.44,0.56,4.62,1.69,6.55c1.13,1.93,2.69,3.44,4.7,4.52 C671.75,270.59,674.01,271.13,676.51,271.13L676.51,271.13z M676.51,266.17c-2.13,0-3.88-0.71-5.26-2.13 c-1.37-1.42-2.06-3.29-2.06-5.6s0.69-4.18,2.06-5.6c1.37-1.42,3.13-2.13,5.26-2.13s3.89,0.71,5.28,2.13 c1.39,1.42,2.08,3.29,2.08,5.6s-0.69,4.18-2.08,5.6C680.4,265.46,678.64,266.17,676.51,266.17L676.51,266.17z"></path> <rect x="692.49" y="236.44" class="st0" width="5.79" height="34.37"></rect> <path class="st0" d="M722.18,246.07v12.51c0,2.41-0.61,4.25-1.83,5.54c-1.22,1.28-2.86,1.92-4.93,1.92c-1.85,0-3.28-0.55-4.28-1.64 c-1-1.1-1.51-2.76-1.51-4.98v-13.34h-5.79v14.13c0,3.61,0.95,6.34,2.85,8.18c1.9,1.84,4.5,2.76,7.81,2.76c1.61,0,3.1-0.3,4.49-0.9 c1.39-0.6,2.55-1.46,3.47-2.57v3.15h5.51v-24.74H722.18z"></path> <path class="st0" d="M746.96,265.34c-0.86,0.68-1.95,1.02-3.24,1.02c-1.11,0-1.96-0.32-2.55-0.95c-0.59-0.63-0.88-1.55-0.88-2.76 v-11.77h6.62v-4.63h-6.62v-5.65h-5.79v5.65h-4.08v4.63h4.08v11.9c0,2.72,0.74,4.79,2.22,6.21c1.48,1.42,3.58,2.13,6.3,2.13 c1.08,0,2.11-0.14,3.08-0.42c0.97-0.28,1.8-0.69,2.48-1.25L746.96,265.34z"></path> <rect x="752.43" y="246.07" class="st0" width="5.79" height="24.74"></rect> <path class="st0" d="M755.34,241.99c1.08,0,1.97-0.35,2.66-1.04c0.69-0.69,1.04-1.55,1.04-2.57c0-0.96-0.36-1.75-1.07-2.39 c-0.71-0.63-1.59-0.95-2.64-0.95c-1.05,0-1.93,0.33-2.64,1c-0.71,0.66-1.07,1.49-1.07,2.48c0,0.99,0.35,1.81,1.07,2.48 C753.41,241.66,754.29,241.99,755.34,241.99L755.34,241.99z"></path> <path class="st0" d="M775.08,271.13c2.53,0,4.8-0.54,6.81-1.62c2.01-1.08,3.57-2.59,4.7-4.52c1.13-1.93,1.69-4.11,1.69-6.55 c0-2.44-0.56-4.62-1.69-6.53c-1.13-1.91-2.69-3.41-4.7-4.49c-2.01-1.08-4.28-1.62-6.81-1.62c-2.5,0-4.76,0.54-6.76,1.62 c-2.01,1.08-3.57,2.58-4.7,4.49c-1.13,1.92-1.69,4.09-1.69,6.53c0,2.44,0.56,4.62,1.69,6.55c1.13,1.93,2.69,3.44,4.7,4.52 C770.32,270.59,772.58,271.13,775.08,271.13L775.08,271.13z M775.08,266.17c-2.13,0-3.88-0.71-5.26-2.13 c-1.37-1.42-2.06-3.29-2.06-5.6s0.69-4.18,2.06-5.6c1.37-1.42,3.13-2.13,5.26-2.13s3.89,0.71,5.28,2.13 c1.39,1.42,2.08,3.29,2.08,5.6s-0.69,4.18-2.08,5.6C778.97,265.46,777.21,266.17,775.08,266.17L775.08,266.17z"></path> <path class="st0" d="M804.17,245.79c-1.82,0-3.46,0.29-4.91,0.88c-1.45,0.59-2.66,1.45-3.61,2.59v-3.2h-5.51v24.74h5.79V258.3 c0-2.41,0.62-4.25,1.85-5.54c1.23-1.28,2.92-1.92,5.05-1.92c1.88,0,3.34,0.55,4.35,1.64c1.02,1.1,1.53,2.73,1.53,4.89v13.43h5.79 v-14.17c0-3.58-0.94-6.28-2.83-8.11C809.79,246.7,807.28,245.79,804.17,245.79L804.17,245.79z"></path> <path class="st0" d="M829.5,271.13c3.46,0,6.19-0.69,8.2-2.08c2.01-1.39,3.01-3.24,3.01-5.56c0-1.76-0.46-3.12-1.37-4.08 c-0.91-0.96-2-1.64-3.27-2.04c-1.27-0.4-2.89-0.76-4.86-1.07c-1.98-0.34-3.44-0.7-4.38-1.09c-0.94-0.39-1.41-1.04-1.41-1.97 c0-0.83,0.44-1.51,1.32-2.01c0.88-0.51,2.17-0.76,3.87-0.76c2.62,0,4.99,0.62,7.09,1.85l2.22-4.4c-1.08-0.65-2.47-1.17-4.17-1.55 c-1.7-0.39-3.4-0.58-5.1-0.58c-3.34,0-5.98,0.7-7.94,2.11c-1.96,1.41-2.94,3.28-2.94,5.63c0,1.79,0.47,3.19,1.41,4.19 c0.94,1,2.05,1.71,3.34,2.11c1.28,0.4,2.94,0.76,4.98,1.07c1.95,0.31,3.36,0.63,4.24,0.97c0.88,0.34,1.32,0.94,1.32,1.81 c0,1.82-1.73,2.73-5.19,2.73c-1.51,0-3.05-0.22-4.61-0.67c-1.56-0.45-2.89-1.04-4.01-1.78l-2.22,4.4c1.14,0.8,2.67,1.47,4.59,1.99 C825.54,270.87,827.5,271.13,829.5,271.13L829.5,271.13z"></path> <polygon class="st1" points="842.3,91.05 844.24,91.05 844.24,84.23 846.93,84.23 846.93,82.65 839.61,82.65 839.61,84.23 842.3,84.23 "></polygon> <polygon class="st1" points="857.44,91.05 857.42,82.65 855.82,82.65 852.72,87.87 849.58,82.65 847.97,82.65 847.97,91.05 849.8,91.05 849.8,86.11 852.26,90.16 853.13,90.16 855.6,86.01 855.62,91.05 "></polygon> <path class="st0" d="M777.82,223.21c18.74,0,33.31-5.38,43.72-16.14c10.4-10.76,15.61-26.17,15.61-46.24V82.6h-24.82v77.24 c0,27.2-11.44,40.8-34.32,40.8c-23.01,0-34.51-13.6-34.51-40.8V82.6h-25.2v78.23c0,20.07,5.23,35.48,15.7,46.24 C744.48,217.83,759.08,223.21,777.82,223.21L777.82,223.21z"></path> <path class="st1" d="M663.64,116.27c-7.3,0-13.85,1.24-19.66,3.7c-5.81,2.47-10.64,6.11-14.47,10.92v-13.45h-22.07v104.09h23.18 V168.9c0-10.14,2.47-17.9,7.42-23.29c4.94-5.39,11.68-8.09,20.22-8.09c7.54,0,13.35,2.31,17.43,6.92 c4.08,4.61,6.12,11.47,6.12,20.56v56.53H705v-59.65c0-15.07-3.77-26.44-11.31-34.11C686.15,120.1,676.13,116.27,663.64,116.27 L663.64,116.27z"></path> <path class="st1" d="M595.54,169.23c0-10.96-2.21-20.63-6.63-28.99c-4.42-8.36-10.58-14.84-18.46-19.46 c-7.88-4.61-16.83-6.92-26.83-6.92c-10.13,0-19.23,2.34-27.31,7.02c-8.08,4.68-14.39,11.2-18.94,19.56 c-4.55,8.36-6.83,17.75-6.83,28.18c0,10.57,2.34,20.03,7.02,28.39c4.68,8.36,11.31,14.88,19.9,19.56 c8.59,4.68,18.52,7.02,29.81,7.02c8.85,0,16.79-1.47,23.84-4.41c7.05-2.94,12.88-7.29,17.5-13.04l-12.88-15.45 c-7.31,7.76-16.6,11.63-27.88,11.63c-8.85,0-16.25-2.31-22.21-6.92c-5.96-4.61-9.65-10.86-11.06-18.76h80.57 C595.41,173.44,595.54,170.97,595.54,169.23L595.54,169.23z M543.62,133.92c7.82,0,14.36,2.41,19.61,7.22 c5.26,4.81,8.39,11.1,9.42,18.86h-58.27c1.15-7.89,4.39-14.21,9.71-18.96C529.42,136.3,535.93,133.92,543.62,133.92L543.62,133.92z "></path> <polygon class="st1" points="478.96,82.39 435.46,188.56 392.34,82.39 366.24,82.39 422.88,220.03 446.57,220.03 503.03,82.39 "></polygon> <polygon class="st2" points="110.56,38.71 244.23,38.71 177.23,205.38 "></polygon> <path class="st3" d="M59.92,72.59c-17.22,23.86-27.36,53.16-27.36,84.83c0,71.31,51.44,130.62,119.24,142.82 C139.86,270.42,74.61,110.07,59.92,72.59z"></path> <path class="st3" d="M294.72,71.59c17.66,24.04,28.09,53.71,28.09,85.83c0,71.4-51.56,130.76-119.48,142.87 C217.67,263.1,276.31,117.97,294.72,71.59z"></path> </g> </svg> 